<?xml version="1.0" standalone="no"?><!DOCTYPE svg PUBLIC "-//W3C//DTD SVG 1.1//EN" "http://www.w3.org/Graphics/SVG/1.1/DTD/svg11.dtd"><svg t="1652371991848" class="icon" viewBox="0 0 1024 1024" version="1.1" xmlns="http://www.w3.org/2000/svg" p-id="1146" xmlns:xlink="http://www.w3.org/1999/xlink" width="200" height="200"><defs><style type="text/css">@font-face { font-family: feedback-iconfont; src: url("//at.alicdn.com/t/font_1031158_u69w8yhxdu.woff2?t=1630033759944") format("woff2"), url("//at.alicdn.com/t/font_1031158_u69w8yhxdu.woff?t=1630033759944") format("woff"), url("//at.alicdn.com/t/font_1031158_u69w8yhxdu.ttf?t=1630033759944") format("truetype"); }
</style></defs><path d="M970.443515 514.142259c0-252.006828-204.294427-456.301255-456.301256-456.301255C262.139715 57.841004 57.841004 262.135431 57.841004 514.142259S262.139715 970.443515 514.142259 970.443515L970.443515 514.142259z" fill="#93DBCF" p-id="1147"></path><path d="M514.142259 970.443515S482.402544 514.142259 970.443515 514.142259L514.142259 970.443515z" fill="#93DBCF" p-id="1148"></path><path d="M927.131314 556.34477l40.612954-40.612954c-488.040971 0-456.301255 456.301255-456.301255 456.301255l39.640368-39.640368c14.087498-120.009372 80.398996-343.035715 376.047933-376.047933z" fill="#ABFFF1" opacity=".36" p-id="1149"></path><path d="M462.728033 850.476987a383.010276 383.010276 0 0 0 18.787616 118.796854c10.779849 0.762644 21.653958 1.169674 32.62661 1.169674L970.443515 514.142259c0-9.006059-0.287063-17.943565-0.80549-26.821087a382.941724 382.941724 0 0 0-123.449841-20.30862C634.408703 467.012552 462.728033 638.693222 462.728033 850.476987z" fill="#87C9BF" p-id="1150"></path></svg>